<svg width="50" height="50" viewBox="0 0 50 50" fill="none" xmlns="http://www.w3.org/2000/svg">
<g opacity="0.9" filter="url(#filter0_i_1_409)">
<path d="M18.75 45.8333C19.9006 45.8333 20.8333 44.9006 20.8333 43.75C20.8333 42.5994 19.9006 41.6666 18.75 41.6666C17.5994 41.6666 16.6667 42.5994 16.6667 43.75C16.6667 44.9006 17.5994 45.8333 18.75 45.8333Z" stroke="#1F1414" stroke-width="2" stroke-linecap="round" stroke-linejoin="round"/>
<path d="M41.6667 45.8333C42.8173 45.8333 43.75 44.9006 43.75 43.75C43.75 42.5994 42.8173 41.6666 41.6667 41.6666C40.5161 41.6666 39.5833 42.5994 39.5833 43.75C39.5833 44.9006 40.5161 45.8333 41.6667 45.8333Z" stroke="#1F1414" stroke-width="2" stroke-linecap="round" stroke-linejoin="round"/>
<path d="M2.08333 2.08337H10.4167L16 29.9792C16.1905 30.9384 16.7123 31.8 17.474 32.4132C18.2358 33.0264 19.1889 33.3521 20.1667 33.3334H40.4167C41.3944 33.3521 42.3475 33.0264 43.1093 32.4132C43.871 31.8 44.3928 30.9384 44.5833 29.9792L47.9167 12.5H12.5" stroke="#1F1414" stroke-width="2" stroke-linecap="round" stroke-linejoin="round"/>
</g>
<defs>
<filter id="filter0_i_1_409" x="0" y="0" width="50" height="54" filterUnits="userSpaceOnUse" color-interpolation-filters="sRGB">
<feFlood flood-opacity="0" result="BackgroundImageFix"/>
<feBlend mode="normal" in="SourceGraphic" in2="BackgroundImageFix" result="shape"/>
<feColorMatrix in="SourceAlpha" type="matrix" values="0 0 0 0 0 0 0 0 0 0 0 0 0 0 0 0 0 0 127 0" result="hardAlpha"/>
<feOffset dy="4"/>
<feGaussianBlur stdDeviation="2"/>
<feComposite in2="hardAlpha" operator="arithmetic" k2="-1" k3="1"/>
<feColorMatrix type="matrix" values="0 0 0 0 0 0 0 0 0 0 0 0 0 0 0 0 0 0 0.25 0"/>
<feBlend mode="normal" in2="shape" result="effect1_innerShadow_1_409"/>
</filter>
</defs>
</svg>
