<svg width="35" height="35" viewBox="0 0 35 35" fill="none" xmlns="http://www.w3.org/2000/svg">
<path d="M22 8H12C9.23858 8 7 10.2386 7 13V23C7 25.7614 9.23858 28 12 28H22C24.7614 28 27 25.7614 27 23V13C27 10.2386 24.7614 8 22 8Z" stroke="#1F1414" stroke-width="2" stroke-linecap="round" stroke-linejoin="round"/>
<path d="M21 17.3701C21.1234 18.2023 20.9813 19.0523 20.5938 19.7991C20.2063 20.5459 19.5932 21.1515 18.8416 21.5297C18.0901 21.908 17.2385 22.0397 16.4078 21.906C15.5771 21.7723 14.8098 21.3801 14.2149 20.7852C13.6199 20.1903 13.2277 19.4229 13.0941 18.5923C12.9604 17.7616 13.0921 16.91 13.4703 16.1584C13.8486 15.4069 14.4542 14.7938 15.201 14.4063C15.9478 14.0188 16.7978 13.8766 17.63 14.0001C18.4789 14.1259 19.2649 14.5215 19.8717 15.1284C20.4785 15.7352 20.8741 16.5211 21 17.3701Z" stroke="#1F1414" stroke-width="2" stroke-linecap="round" stroke-linejoin="round"/>
<path d="M22.5 12.5H22.51" stroke="#1F1414" stroke-width="2" stroke-linecap="round" stroke-linejoin="round"/>
<circle opacity="0.5" cx="17.5" cy="17.5" r="17.5" fill="#C4C4C4"/>
</svg>
