<svg width="35" height="35" viewBox="0 0 35 35" fill="none" xmlns="http://www.w3.org/2000/svg">
<path d="M28 8.00005C27.0424 8.67552 25.9821 9.19216 24.86 9.53005C24.2577 8.83756 23.4573 8.34674 22.567 8.12397C21.6767 7.90121 20.7395 7.95724 19.8821 8.2845C19.0247 8.61176 18.2884 9.19445 17.773 9.95376C17.2575 10.7131 16.9877 11.6124 17 12.53V13.53C15.2426 13.5756 13.5013 13.1859 11.931 12.3955C10.3607 11.6051 9.01032 10.4387 8 9.00005C8 9.00005 4 18 13 22C10.9405 23.398 8.48716 24.099 6 24C15 29 26 24 26 12.5C25.9991 12.2215 25.9723 11.9436 25.92 11.67C26.9406 10.6635 27.6608 9.39276 28 8.00005V8.00005Z" stroke="#1F1414" stroke-width="2" stroke-linecap="round" stroke-linejoin="round"/>
<circle opacity="0.5" cx="17.5" cy="17.5" r="17.5" fill="#C4C4C4"/>
</svg>
