<svg width="35" height="35" viewBox="0 0 35 35" fill="none" xmlns="http://www.w3.org/2000/svg">
<g clip-path="url(#clip0_574_4)">
<path d="M21 29.0001V25.1301C21.0375 24.6532 20.9731 24.1739 20.811 23.7239C20.6489 23.2738 20.3929 22.8635 20.06 22.5201C23.2 22.1701 26.5 20.9801 26.5 15.5201C26.4997 14.1239 25.9627 12.7813 25 11.7701C25.4559 10.5486 25.4236 9.19841 24.91 8.00006C24.91 8.00006 23.73 7.65006 21 9.48006C18.708 8.85888 16.292 8.85888 14 9.48006C11.27 7.65006 10.09 8.00006 10.09 8.00006C9.57638 9.19841 9.54414 10.5486 10 11.7701C9.03013 12.7888 8.49252 14.1435 8.5 15.5501C8.5 20.9701 11.8 22.1601 14.94 22.5501C14.611 22.89 14.3573 23.2955 14.1953 23.74C14.0334 24.1845 13.9668 24.6581 14 25.1301V29.0001M14 26.0001C9 27.5001 9 23.5001 7 23.0001L14 26.0001Z" stroke="#1F1414" stroke-width="2" stroke-linecap="round" stroke-linejoin="round"/>
</g>
<circle opacity="0.5" cx="17.5" cy="17.5" r="17.5" fill="#C4C4C4"/>
<defs>
<clipPath id="clip0_574_4">
<rect width="24" height="24" fill="white" transform="translate(5 7)"/>
</clipPath>
</defs>
</svg>
