<svg width="35" height="35" viewBox="0 0 35 35" fill="none" xmlns="http://www.w3.org/2000/svg">
<path d="M28.54 12.42C28.4212 11.9454 28.1793 11.5106 27.8386 11.1594C27.498 10.8082 27.0707 10.5532 26.6 10.42C24.88 10 18 10 18 10C18 10 11.12 10 9.39999 10.46C8.92924 10.5932 8.50197 10.8482 8.16134 11.1994C7.82071 11.5506 7.57878 11.9854 7.45999 12.46C7.14521 14.2056 6.99123 15.9763 6.99999 17.75C6.98877 19.537 7.14276 21.3213 7.45999 23.08C7.59095 23.5398 7.8383 23.9581 8.17814 24.2945C8.51797 24.6308 8.93881 24.8738 9.39999 25C11.12 25.46 18 25.46 18 25.46C18 25.46 24.88 25.46 26.6 25C27.0707 24.8668 27.498 24.6118 27.8386 24.2606C28.1793 23.9094 28.4212 23.4746 28.54 23C28.8524 21.2676 29.0063 19.5103 29 17.75C29.0112 15.963 28.8572 14.1787 28.54 12.42V12.42Z" stroke="#1F1414" stroke-width="2" stroke-linecap="round" stroke-linejoin="round"/>
<path d="M15.75 21.02L21.5 17.75L15.75 14.48V21.02Z" stroke="#1F1414" stroke-width="2" stroke-linecap="round" stroke-linejoin="round"/>
<circle opacity="0.5" cx="17.5" cy="17.5" r="17.5" fill="#C4C4C4"/>
</svg>
