<svg width="35" height="35" viewBox="0 0 35 35" fill="none" xmlns="http://www.w3.org/2000/svg">
<path d="M21 13C22.5913 13 24.1174 13.6321 25.2426 14.7574C26.3679 15.8826 27 17.4087 27 19V26H23V19C23 18.4696 22.7893 17.9609 22.4142 17.5858C22.0391 17.2107 21.5304 17 21 17C20.4696 17 19.9609 17.2107 19.5858 17.5858C19.2107 17.9609 19 18.4696 19 19V26H15V19C15 17.4087 15.6321 15.8826 16.7574 14.7574C17.8826 13.6321 19.4087 13 21 13V13Z" stroke="#1F1414" stroke-width="2" stroke-linecap="round" stroke-linejoin="round"/>
<path d="M11 14H7V26H11V14Z" stroke="#1F1414" stroke-width="2" stroke-linecap="round" stroke-linejoin="round"/>
<path d="M9 11C10.1046 11 11 10.1046 11 9C11 7.89543 10.1046 7 9 7C7.89543 7 7 7.89543 7 9C7 10.1046 7.89543 11 9 11Z" stroke="#1F1414" stroke-width="2" stroke-linecap="round" stroke-linejoin="round"/>
<circle opacity="0.5" cx="17.5" cy="17.5" r="17.5" fill="#C4C4C4"/>
</svg>
