<svg width="46" height="24" viewBox="0 0 46 24" fill="none" xmlns="http://www.w3.org/2000/svg">
<path d="M6 2C4.89 2 4 2.89 4 4V12C4 13.11 4.89 14 6 14H18C19.11 14 20 13.11 20 12V4C20 2.89 19.11 2 18 2H6ZM6 4H18V12H6V4ZM4 15C2.89 15 2 15.89 2 17V20C2 21.11 2.89 22 4 22H20C21.11 22 22 21.11 22 20V17C22 15.89 21.11 15 20 15H4ZM8 17H20V20H8V17ZM9 17.75V19.25H13V17.75H9ZM15 17.75V19.25H19V17.75H15Z" fill="black"/>
<path d="M28 7H40C40.6566 7 41.3068 7.12933 41.9134 7.3806C42.52 7.63188 43.0712 8.00017 43.5355 8.46447C43.9998 8.92876 44.3681 9.47996 44.6194 10.0866C44.8707 10.6932 45 11.3434 45 12C45 12.6566 44.8707 13.3068 44.6194 13.9134C44.3681 14.52 43.9998 15.0712 43.5355 15.5355C43.0712 15.9998 42.52 16.3681 41.9134 16.6194C41.3068 16.8707 40.6566 17 40 17C38.36 17 36.91 16.21 36 15H32C31.09 16.21 29.64 17 28 17C27.3434 17 26.6932 16.8707 26.0866 16.6194C25.48 16.3681 24.9288 15.9998 24.4645 15.5355C23.5268 14.5979 23 13.3261 23 12C23 10.6739 23.5268 9.40215 24.4645 8.46447C25.4021 7.52678 26.6739 7 28 7ZM41.75 9.5C41.4185 9.5 41.1005 9.6317 40.8661 9.86612C40.6317 10.1005 40.5 10.4185 40.5 10.75C40.5 10.9142 40.5323 11.0767 40.5951 11.2284C40.658 11.38 40.75 11.5178 40.8661 11.6339C40.9822 11.75 41.12 11.842 41.2716 11.9048C41.4233 11.9677 41.5858 12 41.75 12C41.9142 12 42.0767 11.9677 42.2284 11.9048C42.38 11.842 42.5178 11.75 42.6339 11.6339C42.75 11.5178 42.842 11.38 42.9049 11.2284C42.9677 11.0767 43 10.9142 43 10.75C43 10.4185 42.8683 10.1005 42.6339 9.86612C42.3995 9.6317 42.0815 9.5 41.75 9.5ZM39.25 12C38.9185 12 38.6005 12.1317 38.3661 12.3661C38.1317 12.6005 38 12.9185 38 13.25C38 13.5815 38.1317 13.8995 38.3661 14.1339C38.6005 14.3683 38.9185 14.5 39.25 14.5C39.5815 14.5 39.8995 14.3683 40.1339 14.1339C40.3683 13.8995 40.5 13.5815 40.5 13.25C40.5 12.9185 40.3683 12.6005 40.1339 12.3661C39.8995 12.1317 39.5815 12 39.25 12ZM27 9V11H25V13H27V15H29V13H31V11H29V9H27Z" fill="black"/>
</svg>
