<svg width="46" height="24" viewBox="0 0 46 24" fill="none" xmlns="http://www.w3.org/2000/svg">
<path d="M43.71 20.29L42.29 21.71C42.1026 21.8962 41.8492 22.0008 41.585 22.0008C41.3208 22.0008 41.0674 21.8962 40.88 21.71L29 9.85C28.6748 9.94421 28.3385 9.99465 28 10C27.3633 9.99955 26.7359 9.84711 26.17 9.55536C25.6041 9.26362 25.116 8.84099 24.7463 8.32263C24.3766 7.80426 24.1359 7.20513 24.0444 6.57505C23.9529 5.94496 24.0131 5.30213 24.22 4.7L26.76 7.24L27.29 6.71L28.71 5.29L29.24 4.76L26.7 2.22C27.3021 2.01307 27.945 1.95287 28.575 2.04441C29.2051 2.13594 29.8043 2.37656 30.3226 2.74626C30.841 3.11596 31.2636 3.60407 31.5554 4.16999C31.8471 4.73591 31.9995 5.3633 32 6C31.9947 6.33852 31.9442 6.67481 31.85 7L43.71 18.88C43.8962 19.0674 44.0008 19.3208 44.0008 19.585C44.0008 19.8492 43.8962 20.1026 43.71 20.29ZM24.29 18.88C24.1037 19.0674 23.9992 19.3208 23.9992 19.585C23.9992 19.8492 24.1037 20.1026 24.29 20.29L25.71 21.71C25.8974 21.8962 26.1508 22.0008 26.415 22.0008C26.6792 22.0008 26.9326 21.8962 27.12 21.71L32.59 16.25L29.76 13.42L24.29 18.88ZM42 2L38 4V6L35.83 8.17L37.83 10.17L40 8H42L44 4L42 2Z" fill="black"/>
<path d="M4 6H20V16H4V6ZM20 18C20.5304 18 21.0391 17.7893 21.4142 17.4142C21.7893 17.0391 22 16.5304 22 16V6C22 4.89 21.1 4 20 4H4C2.89 4 2 4.89 2 6V16C2 16.5304 2.21071 17.0391 2.58579 17.4142C2.96086 17.7893 3.46957 18 4 18H0V20H24V18H20Z" fill="black"/>
</svg>
