<svg width="150" height="76" viewBox="0 0 150 76" fill="none" xmlns="http://www.w3.org/2000/svg">
<g filter="url(#filter0_dd_553_3)">
<path d="M60.4683 46.1929C59.0002 47.9116 56.8607 49.2454 54.0498 50.1943C51.2389 51.1253 48.1237 51.564 44.7041 51.5103C41.4277 51.4744 38.6616 50.6509 36.4058 49.0396C34.1499 47.4282 32.5386 45.1813 31.5718 42.2988C30.605 39.4163 30.3454 36.1668 30.793 32.5503L31.0078 30.939C31.8314 24.8696 33.9619 20.0625 37.3994 16.5176C40.8548 12.9727 45.0801 11.245 50.0752 11.3345C54.4437 11.4061 57.8006 12.5788 60.146 14.8525C62.4914 17.1263 63.7983 20.4116 64.0669 24.7085L55.2583 24.6816C55.133 22.5869 54.6138 21.0562 53.7007 20.0894C52.8055 19.1226 51.5254 18.6123 49.8604 18.5586C47.3896 18.4691 45.3486 19.4448 43.7373 21.4858C42.126 23.509 41.0249 26.4093 40.4341 30.187C39.9328 33.4097 39.7537 35.9162 39.897 37.7065C40.1655 42.0213 42.1081 44.2056 45.7246 44.2593C47.9089 44.2951 49.8245 43.7669 51.4717 42.6748L52.6802 36.5786H46.3154L47.4434 30.1064H62.9927L60.4683 46.1929ZM83.376 11.8984L87.1089 39.0225L100.214 11.8984H112.46L105.693 51H96.4546L98.1196 41.4126L102.094 23.7417L88.3979 51H82.3018L77.8706 22.7212L75.3999 42.3257L73.8691 51H64.6846L71.4521 11.8984H83.376Z" fill="#00B5BD"/>
<path d="M60.4683 46.1929L61.2286 46.8424L61.4123 46.6273L61.4562 46.3479L60.4683 46.1929ZM54.0498 50.1943L54.3642 51.1436L54.3697 51.1418L54.0498 50.1943ZM44.7041 51.5103L44.7198 50.5104L44.715 50.5103L44.7041 51.5103ZM30.793 32.5503L29.8017 32.4181L29.8005 32.4275L30.793 32.5503ZM31.0078 30.939L30.0169 30.8045L30.0166 30.8068L31.0078 30.939ZM37.3994 16.5176L36.6833 15.8196L36.6815 15.8214L37.3994 16.5176ZM50.0752 11.3345L50.0573 12.3343L50.0588 12.3343L50.0752 11.3345ZM64.0669 24.7085L64.0638 25.7085L65.1315 25.7117L65.0649 24.6461L64.0669 24.7085ZM55.2583 24.6816L54.2601 24.7414L54.3162 25.6788L55.2553 25.6816L55.2583 24.6816ZM53.7007 20.0894L52.9669 20.7688L52.9737 20.776L53.7007 20.0894ZM49.8604 18.5586L49.8241 19.5579L49.8281 19.5581L49.8604 18.5586ZM43.7373 21.4858L44.5195 22.1089L44.5222 22.1055L43.7373 21.4858ZM40.4341 30.187L39.4461 30.0325L39.446 30.0333L40.4341 30.187ZM39.897 37.7065L40.895 37.6444L40.8945 37.6356L40.8938 37.6268L39.897 37.7065ZM45.7246 44.2593L45.741 43.2594L45.7395 43.2594L45.7246 44.2593ZM51.4717 42.6748L52.0243 43.5082L52.3716 43.278L52.4526 42.8693L51.4717 42.6748ZM52.6802 36.5786L53.6611 36.7731L53.8979 35.5786H52.6802V36.5786ZM46.3154 36.5786L45.3303 36.4069L45.1261 37.5786H46.3154V36.5786ZM47.4434 30.1064V29.1064H46.6026L46.4582 29.9348L47.4434 30.1064ZM62.9927 30.1064L63.9806 30.2615L64.1618 29.1064H62.9927V30.1064ZM59.7079 45.5434C58.3882 47.0883 56.4219 48.3381 53.73 49.2469L54.3697 51.1418C57.2995 50.1528 59.6121 48.7349 61.2286 46.8424L59.7079 45.5434ZM53.7354 49.245C51.046 50.1358 48.0444 50.5626 44.7198 50.5104L44.6884 52.5101C48.203 52.5653 51.4318 52.1149 54.3642 51.1436L53.7354 49.245ZM44.715 50.5103C41.6052 50.4763 39.0477 49.6978 36.987 48.2258L35.8245 49.8533C38.2755 51.604 41.2503 52.4726 44.6932 52.5102L44.715 50.5103ZM36.987 48.2258C34.9193 46.7489 33.4265 44.6839 32.5199 41.9808L30.6237 42.6168C31.6507 45.6788 33.3805 48.1076 35.8245 49.8533L36.987 48.2258ZM32.5199 41.9808C31.6091 39.2655 31.3526 36.1703 31.7854 32.6731L29.8005 32.4275C29.3382 36.1633 29.6008 39.5672 30.6237 42.6168L32.5199 41.9808ZM31.7842 32.6825L31.999 31.0711L30.0166 30.8068L29.8017 32.4181L31.7842 32.6825ZM31.9987 31.0734C32.8006 25.164 34.861 20.5718 38.1173 17.2137L36.6815 15.8214C33.0628 19.5532 30.8622 24.5752 30.0169 30.8045L31.9987 31.0734ZM38.1155 17.2156C41.3763 13.8703 45.3351 12.2497 50.0573 12.3343L50.0931 10.3346C44.825 10.2402 40.3333 12.075 36.6833 15.8196L38.1155 17.2156ZM50.0588 12.3343C54.2608 12.4032 57.3415 13.5265 59.4499 15.5705L60.8421 14.1346C58.2597 11.6311 54.6266 10.409 50.0916 10.3346L50.0588 12.3343ZM59.4499 15.5705C61.5659 17.6218 62.8108 20.6417 63.0688 24.7709L65.0649 24.6461C64.7859 20.1816 63.4169 16.6308 60.8421 14.1346L59.4499 15.5705ZM64.0699 23.7085L55.2613 23.6816L55.2553 25.6816L64.0638 25.7085L64.0699 23.7085ZM56.2565 24.6219C56.1248 22.4207 55.5722 20.6146 54.4277 19.4027L52.9737 20.776C53.6553 21.4977 54.1411 22.7531 54.2601 24.7414L56.2565 24.6219ZM54.4344 19.4099C53.3126 18.1983 51.7504 17.619 49.8926 17.5591L49.8281 19.5581C51.3004 19.6056 52.2984 20.0468 52.9669 20.7688L54.4344 19.4099ZM49.8966 17.5592C47.0884 17.4575 44.7493 18.5902 42.9524 20.8662L44.5222 22.1055C45.948 20.2995 47.6909 19.4806 49.8241 19.5579L49.8966 17.5592ZM42.9551 20.8628C41.1961 23.0714 40.0518 26.1597 39.4461 30.0325L41.4221 30.3415C41.998 26.659 43.0559 23.9466 44.5195 22.1088L42.9551 20.8628ZM39.446 30.0333C38.9407 33.2814 38.7476 35.8791 38.9002 37.7863L40.8938 37.6268C40.7599 35.9533 40.9249 33.5379 41.4222 30.3407L39.446 30.0333ZM38.8989 37.7687C39.0407 40.0465 39.6318 41.9228 40.8081 43.2454C42.0084 44.5951 43.6927 45.2292 45.7098 45.2592L45.7395 43.2594C44.14 43.2356 43.0447 42.7508 42.3025 41.9163C41.5362 41.0546 41.0218 39.6813 40.895 37.6444L38.8989 37.7687ZM45.7082 45.2591C48.0724 45.2979 50.191 44.7238 52.0243 43.5082L50.9191 41.8414C49.458 42.8101 47.7453 43.2923 45.741 43.2594L45.7082 45.2591ZM52.4526 42.8693L53.6611 36.7731L51.6993 36.3842L50.4908 42.4804L52.4526 42.8693ZM52.6802 35.5786H46.3154V37.5786H52.6802V35.5786ZM47.3006 36.7503L48.4285 30.2781L46.4582 29.9348L45.3303 36.4069L47.3006 36.7503ZM47.4434 31.1064H62.9927V29.1064H47.4434V31.1064ZM62.0048 29.9514L59.4804 46.0378L61.4562 46.3479L63.9806 30.2615L62.0048 29.9514ZM83.376 11.8984L84.3666 11.7621L84.2478 10.8984H83.376V11.8984ZM87.1089 39.0225L86.1182 39.1588L86.5695 42.4375L88.0093 39.4575L87.1089 39.0225ZM100.214 11.8984V10.8984H99.5869L99.3139 11.4634L100.214 11.8984ZM112.46 11.8984L113.446 12.069L113.648 10.8984H112.46V11.8984ZM105.693 51V52H106.535L106.678 51.1705L105.693 51ZM96.4546 51L95.4693 50.8289L95.266 52H96.4546V51ZM98.1196 41.4126L97.144 41.1932L97.1386 41.2172L97.1344 41.2415L98.1196 41.4126ZM102.094 23.7417L103.07 23.9611L101.201 23.2927L102.094 23.7417ZM88.3979 51V52H89.0146L89.2915 51.449L88.3979 51ZM82.3018 51L81.3138 51.1548L81.4463 52H82.3018V51ZM77.8706 22.7212L78.8586 22.5664L76.8785 22.5962L77.8706 22.7212ZM75.3999 42.3257L76.3847 42.4995L76.389 42.4752L76.3921 42.4507L75.3999 42.3257ZM73.8691 51V52H74.7081L74.8539 51.1738L73.8691 51ZM64.6846 51L63.6992 50.8295L63.4966 52H64.6846V51ZM71.4521 11.8984V10.8984H70.6104L70.4668 11.7279L71.4521 11.8984ZM82.3853 12.0348L86.1182 39.1588L88.0995 38.8861L84.3666 11.7621L82.3853 12.0348ZM88.0093 39.4575L101.115 12.3335L99.3139 11.4634L86.2085 38.5874L88.0093 39.4575ZM100.214 12.8984H112.46V10.8984H100.214V12.8984ZM111.475 11.7279L104.708 50.8295L106.678 51.1705L113.446 12.069L111.475 11.7279ZM105.693 50H96.4546V52H105.693V50ZM97.4398 51.1711L99.1049 41.5837L97.1344 41.2415L95.4693 50.8289L97.4398 51.1711ZM99.0953 41.632L103.07 23.9611L101.119 23.5223L97.144 41.1932L99.0953 41.632ZM101.201 23.2927L87.5044 50.551L89.2915 51.449L102.988 24.1907L101.201 23.2927ZM88.3979 50H82.3018V52H88.3979V50ZM83.2897 50.8452L78.8586 22.5664L76.8827 22.876L81.3138 51.1548L83.2897 50.8452ZM76.8785 22.5962L74.4077 42.2006L76.3921 42.4507L78.8628 22.8462L76.8785 22.5962ZM74.4151 42.1519L72.8844 50.8262L74.8539 51.1738L76.3847 42.4995L74.4151 42.1519ZM73.8691 50H64.6846V52H73.8691V50ZM65.6699 51.1705L72.4375 12.069L70.4668 11.7279L63.6992 50.8295L65.6699 51.1705ZM71.4521 12.8984H83.376V10.8984H71.4521V12.8984Z" fill="#1F1414"/>
</g>
<g filter="url(#filter1_i_553_3)">
<path d="M5.87109 66.5L7.89258 61.6602H8.98828L6.09961 68H5.23828L4.58203 63.207L2.29688 68H1.43555L0.75 61.6602H1.76367L2.15039 66.3828L4.40039 61.6602H5.25586L5.87109 66.5ZM14.6836 66.5L16.7051 61.6602H17.8008L14.9121 68H14.0508L13.3945 63.207L11.1094 68H10.248L9.5625 61.6602H10.5762L10.9629 66.3828L13.2129 61.6602H14.0684L14.6836 66.5ZM23.4961 66.5L25.5176 61.6602H26.6133L23.7246 68H22.8633L22.207 63.207L19.9219 68H19.0605L18.375 61.6602H19.3887L19.7754 66.3828L22.0254 61.6602H22.8809L23.4961 66.5ZM26.6719 66.7695C26.8633 66.7656 27.0215 66.8242 27.1465 66.9453C27.2715 67.0664 27.332 67.2227 27.3281 67.4141C27.3242 67.6055 27.2598 67.7617 27.1348 67.8828C27.0098 68 26.8535 68.0625 26.666 68.0703C26.4785 68.0781 26.3242 68.0254 26.2031 67.9121C26.082 67.7949 26.0215 67.6406 26.0215 67.4492C26.0215 67.2578 26.082 67.0996 26.2031 66.9746C26.3242 66.8457 26.4805 66.7773 26.6719 66.7695ZM29.332 64.8184C29.4258 64.127 29.6113 63.5273 29.8887 63.0195C30.1699 62.5078 30.5098 62.1309 30.9082 61.8887C31.3105 61.6426 31.75 61.5254 32.2266 61.5371C32.9609 61.5527 33.5156 61.8301 33.8906 62.3691L34.1016 61.6602H35.0742L34.0195 67.8652C33.9062 68.6738 33.5781 69.3203 33.0352 69.8047C32.4922 70.293 31.8223 70.5254 31.0254 70.502C30.5957 70.4941 30.1836 70.3926 29.7891 70.1973C29.3984 70.002 29.0898 69.7344 28.8633 69.3945L29.4668 68.7441C29.8496 69.3105 30.3555 69.6016 30.9844 69.6172C31.4883 69.6328 31.9141 69.4922 32.2617 69.1953C32.6133 68.8984 32.8457 68.4766 32.959 67.9297L33.0762 67.3672C32.5605 67.8828 31.957 68.1328 31.2656 68.1172C30.8711 68.1055 30.5273 68 30.2344 67.8008C29.9453 67.5977 29.7207 67.3066 29.5605 66.9277C29.4004 66.5449 29.3125 66.1191 29.2969 65.6504C29.2891 65.4199 29.3008 65.1426 29.332 64.8184ZM30.3574 65.4219C30.3457 65.9805 30.4414 66.4141 30.6445 66.7227C30.8516 67.0273 31.1621 67.1875 31.5762 67.2031C32.209 67.2188 32.7539 66.9082 33.2109 66.2715L33.709 63.3594C33.4746 62.7812 33.0508 62.4805 32.4375 62.457C31.8633 62.4414 31.3906 62.6758 31.0195 63.1602C30.6523 63.6445 30.4355 64.2988 30.3691 65.123L30.3574 65.4219ZM39.498 68C39.4707 67.8867 39.457 67.7754 39.457 67.666L39.4746 67.332C38.8926 67.8711 38.2754 68.1328 37.623 68.1172C37.0645 68.1094 36.6094 67.9336 36.2578 67.5898C35.9102 67.2422 35.752 66.8086 35.7832 66.2891C35.8223 65.6172 36.1152 65.0938 36.6621 64.7188C37.2129 64.3398 37.9355 64.1504 38.8301 64.1504L39.9375 64.1562L40.0078 63.6523C40.0469 63.2734 39.9727 62.9746 39.7852 62.7559C39.6016 62.5332 39.3242 62.418 38.9531 62.4102C38.5898 62.4023 38.2676 62.4922 37.9863 62.6797C37.709 62.8633 37.5391 63.1074 37.4766 63.4121L36.4102 63.418C36.4453 63.0469 36.5898 62.7188 36.8438 62.4336C37.0977 62.1445 37.4238 61.9219 37.8223 61.7656C38.2207 61.6055 38.6328 61.5293 39.0586 61.5371C39.7188 61.5527 40.2324 61.7539 40.5996 62.1406C40.9668 62.5234 41.1211 63.0332 41.0625 63.6699L40.5469 66.8105L40.5176 67.2617C40.5098 67.4766 40.5332 67.6895 40.5879 67.9004L40.5762 68H39.498ZM37.834 67.1797C38.1738 67.1875 38.4941 67.1074 38.7949 66.9395C39.0996 66.7676 39.3613 66.5312 39.5801 66.2305L39.8086 64.9238L39.0059 64.918C38.3379 64.918 37.8262 65.0234 37.4707 65.2344C37.1152 65.4453 36.9141 65.7441 36.8672 66.1309C36.832 66.4277 36.9004 66.6758 37.0723 66.875C37.248 67.0703 37.502 67.1719 37.834 67.1797ZM44.1094 61.6543L43.9746 62.3633C44.5059 61.8008 45.1484 61.5273 45.9023 61.543C46.3047 61.5508 46.6445 61.6426 46.9219 61.8184C47.2031 61.9941 47.3965 62.2422 47.502 62.5625C48.0957 61.8672 48.7969 61.5273 49.6055 61.543C50.2383 61.5586 50.7051 61.7715 51.0059 62.1816C51.3066 62.5918 51.418 63.1426 51.3398 63.834L50.6426 68H49.5879L50.2793 63.8223C50.3027 63.6191 50.3027 63.4336 50.2793 63.2656C50.2051 62.7344 49.8574 62.4629 49.2363 62.4512C48.8496 62.4434 48.498 62.5645 48.1816 62.8145C47.8691 63.0605 47.668 63.3848 47.5781 63.7871L46.8574 68H45.791L46.4941 63.8281C46.5449 63.3945 46.4785 63.0605 46.2949 62.8262C46.1152 62.5918 45.834 62.4707 45.4512 62.4629C44.791 62.4473 44.2656 62.748 43.875 63.3652L43.0723 68H42.0117L43.1133 61.6602L44.1094 61.6543ZM55.0254 68.1172C54.2363 68.1016 53.6191 67.8105 53.1738 67.2441C52.7285 66.6777 52.541 65.9531 52.6113 65.0703L52.6406 64.8184C52.707 64.1895 52.8926 63.6152 53.1973 63.0957C53.5059 62.5762 53.8809 62.1855 54.3223 61.9238C54.7637 61.6582 55.2402 61.5312 55.752 61.543C56.4043 61.5586 56.916 61.7754 57.2871 62.1934C57.6582 62.6113 57.8613 63.1777 57.8965 63.8926C57.9082 64.1465 57.9004 64.4004 57.873 64.6543L57.8086 65.1406H53.666C53.5957 65.7148 53.6895 66.2031 53.9473 66.6055C54.209 67.0078 54.5977 67.2168 55.1133 67.2324C55.7383 67.248 56.3164 66.9668 56.8477 66.3887L57.457 66.9043C57.1914 67.2871 56.8477 67.5879 56.4258 67.8066C56.0078 68.0215 55.541 68.125 55.0254 68.1172ZM55.6992 62.4277C55.2617 62.416 54.8789 62.5645 54.5508 62.873C54.2266 63.1816 53.9688 63.6406 53.7773 64.25L56.8594 64.2559L56.8828 64.1621C56.9453 63.6699 56.8652 63.2617 56.6426 62.9375C56.4238 62.6094 56.1094 62.4395 55.6992 62.4277ZM60.5977 61.6543L60.4629 62.3633C60.9941 61.8008 61.6367 61.5273 62.3906 61.543C62.793 61.5508 63.1328 61.6426 63.4102 61.8184C63.6914 61.9941 63.8848 62.2422 63.9902 62.5625C64.584 61.8672 65.2852 61.5273 66.0938 61.543C66.7266 61.5586 67.1934 61.7715 67.4941 62.1816C67.7949 62.5918 67.9062 63.1426 67.8281 63.834L67.1309 68H66.0762L66.7676 63.8223C66.791 63.6191 66.791 63.4336 66.7676 63.2656C66.6934 62.7344 66.3457 62.4629 65.7246 62.4512C65.3379 62.4434 64.9863 62.5645 64.6699 62.8145C64.3574 63.0605 64.1562 63.3848 64.0664 63.7871L63.3457 68H62.2793L62.9824 63.8281C63.0332 63.3945 62.9668 63.0605 62.7832 62.8262C62.6035 62.5918 62.3223 62.4707 61.9395 62.4629C61.2793 62.4473 60.7539 62.748 60.3633 63.3652L59.5605 68H58.5L59.6016 61.6602L60.5977 61.6543ZM72.6504 68C72.623 67.8867 72.6094 67.7754 72.6094 67.666L72.627 67.332C72.0449 67.8711 71.4277 68.1328 70.7754 68.1172C70.2168 68.1094 69.7617 67.9336 69.4102 67.5898C69.0625 67.2422 68.9043 66.8086 68.9355 66.2891C68.9746 65.6172 69.2676 65.0938 69.8145 64.7188C70.3652 64.3398 71.0879 64.1504 71.9824 64.1504L73.0898 64.1562L73.1602 63.6523C73.1992 63.2734 73.125 62.9746 72.9375 62.7559C72.7539 62.5332 72.4766 62.418 72.1055 62.4102C71.7422 62.4023 71.4199 62.4922 71.1387 62.6797C70.8613 62.8633 70.6914 63.1074 70.6289 63.4121L69.5625 63.418C69.5977 63.0469 69.7422 62.7188 69.9961 62.4336C70.25 62.1445 70.5762 61.9219 70.9746 61.7656C71.373 61.6055 71.7852 61.5293 72.2109 61.5371C72.8711 61.5527 73.3848 61.7539 73.752 62.1406C74.1191 62.5234 74.2734 63.0332 74.2148 63.6699L73.6992 66.8105L73.6699 67.2617C73.6621 67.4766 73.6855 67.6895 73.7402 67.9004L73.7285 68H72.6504ZM70.9863 67.1797C71.3262 67.1875 71.6465 67.1074 71.9473 66.9395C72.252 66.7676 72.5137 66.5312 72.7324 66.2305L72.9609 64.9238L72.1582 64.918C71.4902 64.918 70.9785 65.0234 70.623 65.2344C70.2676 65.4453 70.0664 65.7441 70.0195 66.1309C69.9844 66.4277 70.0527 66.6758 70.2246 66.875C70.4004 67.0703 70.6543 67.1719 70.9863 67.1797ZM77.2734 61.6543L77.1211 62.457C77.6914 61.832 78.3398 61.5273 79.0664 61.543C79.6641 61.5586 80.1055 61.7656 80.3906 62.1641C80.6758 62.5625 80.7812 63.123 80.707 63.8457L80.0156 68H78.9551L79.6523 63.8281C79.6758 63.6367 79.6777 63.459 79.6582 63.2949C79.5918 62.748 79.2695 62.4688 78.6914 62.457C78.0547 62.4453 77.4961 62.7852 77.0156 63.4766L76.2305 68H75.1699L76.2715 61.6602L77.2734 61.6543ZM82.7988 68H81.7441L82.8457 61.6602H83.9004L82.7988 68ZM83.6719 59.3457C83.8516 59.3379 84 59.3926 84.1172 59.5098C84.2383 59.623 84.2988 59.7734 84.2988 59.9609C84.2949 60.1445 84.2344 60.2949 84.1172 60.4121C84.0039 60.5293 83.8555 60.5918 83.6719 60.5996C83.4883 60.6074 83.3379 60.5547 83.2207 60.4414C83.1035 60.3281 83.0469 60.1797 83.0508 59.9961C83.0547 59.8125 83.1133 59.6602 83.2266 59.5391C83.3398 59.418 83.4883 59.3535 83.6719 59.3457ZM88.4121 68C88.3848 67.8867 88.3711 67.7754 88.3711 67.666L88.3887 67.332C87.8066 67.8711 87.1895 68.1328 86.5371 68.1172C85.9785 68.1094 85.5234 67.9336 85.1719 67.5898C84.8242 67.2422 84.666 66.8086 84.6973 66.2891C84.7363 65.6172 85.0293 65.0938 85.5762 64.7188C86.127 64.3398 86.8496 64.1504 87.7441 64.1504L88.8516 64.1562L88.9219 63.6523C88.9609 63.2734 88.8867 62.9746 88.6992 62.7559C88.5156 62.5332 88.2383 62.418 87.8672 62.4102C87.5039 62.4023 87.1816 62.4922 86.9004 62.6797C86.623 62.8633 86.4531 63.1074 86.3906 63.4121L85.3242 63.418C85.3594 63.0469 85.5039 62.7188 85.7578 62.4336C86.0117 62.1445 86.3379 61.9219 86.7363 61.7656C87.1348 61.6055 87.5469 61.5293 87.9727 61.5371C88.6328 61.5527 89.1465 61.7539 89.5137 62.1406C89.8809 62.5234 90.0352 63.0332 89.9766 63.6699L89.4609 66.8105L89.4316 67.2617C89.4238 67.4766 89.4473 67.6895 89.502 67.9004L89.4902 68H88.4121ZM86.748 67.1797C87.0879 67.1875 87.4082 67.1074 87.709 66.9395C88.0137 66.7676 88.2754 66.5312 88.4941 66.2305L88.7227 64.9238L87.9199 64.918C87.252 64.918 86.7402 65.0234 86.3848 65.2344C86.0293 65.4453 85.8281 65.7441 85.7812 66.1309C85.7461 66.4277 85.8145 66.6758 85.9863 66.875C86.1621 67.0703 86.416 67.1719 86.748 67.1797ZM91.7109 66.7695C91.9023 66.7656 92.0605 66.8242 92.1855 66.9453C92.3105 67.0664 92.3711 67.2227 92.3672 67.4141C92.3633 67.6055 92.2988 67.7617 92.1738 67.8828C92.0488 68 91.8926 68.0625 91.7051 68.0703C91.5176 68.0781 91.3633 68.0254 91.2422 67.9121C91.1211 67.7949 91.0605 67.6406 91.0605 67.4492C91.0605 67.2578 91.1211 67.0996 91.2422 66.9746C91.3633 66.8457 91.5195 66.7773 91.7109 66.7695ZM96.7383 67.2383C97.1172 67.2461 97.459 67.1367 97.7637 66.9102C98.0684 66.6797 98.2676 66.3789 98.3613 66.0078L99.3633 66.002C99.3047 66.4004 99.1445 66.7637 98.8828 67.0918C98.625 67.4199 98.2988 67.6758 97.9043 67.8594C97.5098 68.043 97.1055 68.1289 96.6914 68.1172C96.1641 68.1094 95.7168 67.9727 95.3496 67.707C94.9863 67.4375 94.7188 67.0645 94.5469 66.5879C94.375 66.1074 94.3164 65.5684 94.3711 64.9707L94.4004 64.6777C94.4746 64.0684 94.6523 63.5234 94.9336 63.043C95.2148 62.5625 95.582 62.1895 96.0352 61.9238C96.4883 61.6543 96.9883 61.5273 97.5352 61.543C98.1992 61.5586 98.7305 61.7812 99.1289 62.2109C99.5273 62.6406 99.7266 63.1855 99.7266 63.8457L98.7363 63.8398C98.7285 63.4258 98.6133 63.0918 98.3906 62.8379C98.168 62.5801 97.8672 62.4434 97.4883 62.4277C96.9375 62.416 96.4785 62.6211 96.1113 63.043C95.748 63.4648 95.5215 64.0547 95.4316 64.8125L95.4141 64.9648C95.3906 65.2148 95.3867 65.4727 95.4023 65.7383C95.4297 66.1953 95.5586 66.5566 95.7891 66.8223C96.0195 67.0879 96.3359 67.2266 96.7383 67.2383ZM103.734 61.543C104.266 61.5508 104.721 61.6953 105.1 61.9766C105.479 62.2578 105.758 62.6465 105.938 63.1426C106.121 63.6348 106.184 64.1738 106.125 64.7598L106.113 64.8887C106.039 65.5059 105.855 66.0645 105.562 66.5645C105.27 67.0605 104.891 67.4473 104.426 67.7246C103.961 68.002 103.451 68.1328 102.896 68.1172C102.369 68.1094 101.914 67.9648 101.531 67.6836C101.152 67.4023 100.875 67.0195 100.699 66.5352C100.523 66.0508 100.461 65.5176 100.512 64.9355C100.57 64.2793 100.748 63.6895 101.045 63.166C101.342 62.6426 101.723 62.2383 102.188 61.9531C102.656 61.6641 103.172 61.5273 103.734 61.543ZM101.578 64.9414C101.551 65.1875 101.551 65.4434 101.578 65.709C101.617 66.1699 101.754 66.5371 101.988 66.8105C102.227 67.084 102.543 67.2266 102.938 67.2383C103.289 67.25 103.613 67.1641 103.91 66.9805C104.207 66.793 104.457 66.5117 104.66 66.1367C104.863 65.7617 104.994 65.3457 105.053 64.8887C105.084 64.5293 105.09 64.2266 105.07 63.9805C105.023 63.5078 104.881 63.1348 104.643 62.8613C104.404 62.5879 104.088 62.4434 103.693 62.4277C103.146 62.416 102.682 62.6309 102.299 63.0723C101.916 63.5137 101.68 64.0918 101.59 64.8066L101.578 64.9414ZM109.008 61.6543L108.873 62.3633C109.404 61.8008 110.047 61.5273 110.801 61.543C111.203 61.5508 111.543 61.6426 111.82 61.8184C112.102 61.9941 112.295 62.2422 112.4 62.5625C112.994 61.8672 113.695 61.5273 114.504 61.543C115.137 61.5586 115.604 61.7715 115.904 62.1816C116.205 62.5918 116.316 63.1426 116.238 63.834L115.541 68H114.486L115.178 63.8223C115.201 63.6191 115.201 63.4336 115.178 63.2656C115.104 62.7344 114.756 62.4629 114.135 62.4512C113.748 62.4434 113.396 62.5645 113.08 62.8145C112.768 63.0605 112.566 63.3848 112.477 63.7871L111.756 68H110.689L111.393 63.8281C111.443 63.3945 111.377 63.0605 111.193 62.8262C111.014 62.5918 110.732 62.4707 110.35 62.4629C109.689 62.4473 109.164 62.748 108.773 63.3652L107.971 68H106.91L108.012 61.6602L109.008 61.6543ZM117.961 66.7695C118.152 66.7656 118.311 66.8242 118.436 66.9453C118.561 67.0664 118.621 67.2227 118.617 67.4141C118.613 67.6055 118.549 67.7617 118.424 67.8828C118.299 68 118.143 68.0625 117.955 68.0703C117.768 68.0781 117.613 68.0254 117.492 67.9121C117.371 67.7949 117.311 67.6406 117.311 67.4492C117.311 67.2578 117.371 67.0996 117.492 66.9746C117.613 66.8457 117.77 66.7773 117.961 66.7695ZM126.064 64.8594C125.986 65.5078 125.809 66.0918 125.531 66.6113C125.254 67.1309 124.918 67.5156 124.523 67.7656C124.129 68.0156 123.691 68.1348 123.211 68.123C122.445 68.1074 121.877 67.8203 121.506 67.2617L121.289 68H120.311L121.875 59H122.936L122.297 62.3633C122.805 61.8008 123.422 61.5273 124.148 61.543C124.758 61.5586 125.232 61.7832 125.572 62.2168C125.912 62.6504 126.092 63.248 126.111 64.0098C126.115 64.2598 126.104 64.502 126.076 64.7363L126.064 64.8594ZM125.057 64.2441C125.068 63.6738 124.973 63.2383 124.77 62.9375C124.566 62.6328 124.256 62.4727 123.838 62.457C123.178 62.4414 122.619 62.7734 122.162 63.4531L121.688 66.2129C121.922 66.8574 122.361 67.1875 123.006 67.2031C123.42 67.2188 123.781 67.0957 124.09 66.834C124.402 66.5723 124.639 66.207 124.799 65.7383C124.959 65.2656 125.045 64.7676 125.057 64.2441ZM130.852 62.627L130.354 62.5742C129.674 62.5742 129.139 62.8809 128.748 63.4941L127.969 68H126.908L128.01 61.6602L129.035 61.6543L128.877 62.3926C129.326 61.8027 129.855 61.5156 130.465 61.5312C130.594 61.5312 130.762 61.5605 130.969 61.6191L130.852 62.627Z" fill="white"/>
</g>
<defs>
<filter id="filter0_dd_553_3" x="26.1216" y="11.2002" width="90.3389" height="48.3906" filterUnits="userSpaceOnUse" color-interpolation-filters="sRGB">
<feFlood flood-opacity="0" result="BackgroundImageFix"/>
<feColorMatrix in="SourceAlpha" type="matrix" values="0 0 0 0 0 0 0 0 0 0 0 0 0 0 0 0 0 0 127 0" result="hardAlpha"/>
<feOffset dy="4"/>
<feGaussianBlur stdDeviation="2"/>
<feComposite in2="hardAlpha" operator="out"/>
<feColorMatrix type="matrix" values="0 0 0 0 0 0 0 0 0 0 0 0 0 0 0 0 0 0 0.25 0"/>
<feBlend mode="normal" in2="BackgroundImageFix" result="effect1_dropShadow_553_3"/>
<feColorMatrix in="SourceAlpha" type="matrix" values="0 0 0 0 0 0 0 0 0 0 0 0 0 0 0 0 0 0 127 0" result="hardAlpha"/>
<feOffset dy="4"/>
<feGaussianBlur stdDeviation="2"/>
<feComposite in2="hardAlpha" operator="out"/>
<feColorMatrix type="matrix" values="0 0 0 0 0 0 0 0 0 0 0 0 0 0 0 0 0 0 0.25 0"/>
<feBlend mode="normal" in2="effect1_dropShadow_553_3" result="effect2_dropShadow_553_3"/>
<feBlend mode="normal" in="SourceGraphic" in2="effect2_dropShadow_553_3" result="shape"/>
</filter>
<filter id="filter1_i_553_3" x="0.75" y="59" width="130.219" height="15.5371" filterUnits="userSpaceOnUse" color-interpolation-filters="sRGB">
<feFlood flood-opacity="0" result="BackgroundImageFix"/>
<feBlend mode="normal" in="SourceGraphic" in2="BackgroundImageFix" result="shape"/>
<feColorMatrix in="SourceAlpha" type="matrix" values="0 0 0 0 0 0 0 0 0 0 0 0 0 0 0 0 0 0 127 0" result="hardAlpha"/>
<feOffset dy="4"/>
<feGaussianBlur stdDeviation="2"/>
<feComposite in2="hardAlpha" operator="arithmetic" k2="-1" k3="1"/>
<feColorMatrix type="matrix" values="0 0 0 0 0 0 0 0 0 0 0 0 0 0 0 0 0 0 0.25 0"/>
<feBlend mode="normal" in2="shape" result="effect1_innerShadow_553_3"/>
</filter>
</defs>
</svg>
